# xmcd
#
# Track frame offsets:
# 150
# 13272
# 27100
# 44101
# 60203
# 76452
# 92729
# 107842
# 126948
# 148032
# 163995
#
# Disc length: 2441 seconds
#
#
# Revision: 0
# Processed by: cddbd v1.4PL0 Copyright (c) Steve Scherf et al.
# Submitted via: FreeRIP 2.00 
#
DISCID=9609870b
DTITLE=Alabama - I'm In The Mood: The Love Songs Disc 2
DYEAR=2003
DGENRE=Country
TTITLE0=Here We Are
TTITLE1=Face To Face
TTITLE2=Take Me Down
TTITLE3=In Pictures
TTITLE4=Close Enough To Perfect
TTITLE5=Forever's As Far As I'll Go
TTITLE6=Love In The First Degree
TTITLE7=There's No Way
TTITLE8=God Must Have Spent A Little More Time On You
TTITLE9=Nothing Comes Close
TTITLE10=Once Upon A Lifetime
EXTD=RCA
EXTT0=
EXTT1=
EXTT2=
EXTT3=
EXTT4=
EXTT5=
EXTT6=
EXTT7=
EXTT8=
EXTT9=
EXTT10=
PLAYORDER=
